<svg xmlns="http://www.w3.org/2000/svg" xmlns:xlink="http://www.w3.org/1999/xlink" width="32" height="32" viewBox="0 0 32 32">
  <defs>
    <linearGradient id="linear-gradient" x1="0.5" y1="0.995" x2="0.5" y2="0.068" gradientUnits="objectBoundingBox">
      <stop offset="0" stop-color="#e09b3d"/>
      <stop offset="0.24" stop-color="#c74c4d"/>
      <stop offset="0.65" stop-color="#c21975"/>
      <stop offset="1" stop-color="#7024c4"/>
    </linearGradient>
  </defs>
  <g id="Instagram" transform="translate(0)">
    <g id="Layer_2" data-name="Layer 2" transform="translate(0 0)">
      <g id="_05.instagram" data-name="05.instagram" transform="translate(0 0)">
        <circle id="background" cx="16" cy="16" r="16" transform="translate(0 0)" fill="url(#linear-gradient)"/>
        <g id="icon" transform="translate(7.838 7.984)">
          <path id="Path_10" data-name="Path 10" d="M49.256,38h-6.48A4.782,4.782,0,0,0,38,42.776v6.48a4.782,4.782,0,0,0,4.776,4.776h6.48a4.78,4.78,0,0,0,4.776-4.776v-6.48A4.782,4.782,0,0,0,49.256,38Zm3.164,11.256a3.164,3.164,0,0,1-3.164,3.164h-6.48a3.164,3.164,0,0,1-3.164-3.164v-6.48a3.164,3.164,0,0,1,3.164-3.164h6.48a3.164,3.164,0,0,1,3.164,3.164Z" transform="translate(-38 -38)" fill="#fff"/>
          <path id="Path_11" data-name="Path 11" d="M60.479,56.35A4.147,4.147,0,1,0,64.625,60.5,4.147,4.147,0,0,0,60.479,56.35Zm0,6.677A2.531,2.531,0,1,1,63.011,60.5,2.531,2.531,0,0,1,60.479,63.027Z" transform="translate(-52.463 -52.479)" fill="#fff"/>
          <ellipse id="Ellipse_2" data-name="Ellipse 2" cx="1.025" cy="1.025" rx="1.025" ry="1.025" transform="translate(11.162 2.846)" fill="#fff"/>
        </g>
      </g>
    </g>
  </g>
</svg>
