<svg xmlns="http://www.w3.org/2000/svg" width="32" height="32" viewBox="0 0 32 32">
  <g id="Twitter" transform="translate(0.333 0)">
    <g id="Layer_2" data-name="Layer 2" transform="translate(-0.333 0)">
      <g id="_02.twitter" data-name="02.twitter" transform="translate(0 0)">
        <circle id="background" cx="16" cy="16" r="16" transform="translate(0 0)" fill="#00a6de"/>
        <path id="icon" d="M54,46.222a6.769,6.769,0,0,1-1.373,1.508.586.586,0,0,0-.211.458v.053a9.615,9.615,0,0,1-.62,3.346,9.8,9.8,0,0,1-1.825,3.059,9.014,9.014,0,0,1-3.955,2.614,9.893,9.893,0,0,1-3.109.483,9.492,9.492,0,0,1-4.766-1.284.274.274,0,0,1-.132-.3.264.264,0,0,1,.257-.2h.4a6.379,6.379,0,0,0,3.573-1.084A3.464,3.464,0,0,1,39.5,52.517a.181.181,0,0,1,.211-.234,3.181,3.181,0,0,0,.582.055h.074a3.466,3.466,0,0,1-2.019-3.187.181.181,0,0,1,.268-.158,3.046,3.046,0,0,0,.789.306,3.464,3.464,0,0,1-.559-4.2.181.181,0,0,1,.3-.025A9.056,9.056,0,0,0,45.368,48.4h.017a.131.131,0,0,0,.127-.141,3.662,3.662,0,0,1,.08-1.266,3.356,3.356,0,0,1,2.257-2.413,3.711,3.711,0,0,1,1.095-.169,3.451,3.451,0,0,1,2.287.863.447.447,0,0,0,.3.114.454.454,0,0,0,.105-.015,6.328,6.328,0,0,0,1.688-.7.179.179,0,0,1,.264.211,3.424,3.424,0,0,1-.909,1.449,6.371,6.371,0,0,0,1.105-.373.181.181,0,0,1,.221.262Z" transform="translate(-29.606 -35.074)" fill="#fff"/>
      </g>
    </g>
  </g>
</svg>
